<svg width="412" height="242" viewBox="0 0 412 242" fill="none" xmlns="http://www.w3.org/2000/svg">
<path d="M24.9023 233.777C22.9492 232.801 20.6055 230.848 17.8711 227.918C15.332 224.988 12.8906 221.668 10.5469 217.957C8.20312 214.246 6.05469 210.34 4.10156 206.238C2.34375 201.941 1.17188 198.035 0.585938 194.52C0.195312 190.809 0.488281 187.781 1.46484 185.438C2.63672 182.898 4.98047 181.336 8.49609 180.75C8.69141 183.484 8.98438 187 9.375 191.297C9.76562 195.594 10.6445 199.793 12.0117 203.895C13.3789 207.996 15.332 211.707 17.8711 215.027C20.4102 218.152 23.9258 219.91 28.418 220.301C41.1133 221.277 52.0508 219.227 61.2305 214.148C70.6055 208.875 78.7109 201.746 85.5469 192.762C92.3828 183.777 98.1445 173.523 102.832 162C107.52 150.281 111.621 138.367 115.137 126.258C118.848 114.148 122.168 102.43 125.098 91.1016C128.027 79.7734 131.055 69.9102 134.18 61.5117C136.133 54.2852 136.035 49.5 133.887 47.1562C131.738 44.6172 128.32 43.543 123.633 43.9336C118.945 44.3242 113.379 45.6914 106.934 48.0352C100.684 50.1836 94.4336 52.4297 88.1836 54.7734C81.9336 56.9219 76.0742 58.582 70.6055 59.7539C65.1367 60.7305 60.9375 60.2422 58.0078 58.2891C53.9062 55.5547 52.5391 52.918 53.9062 50.3789C55.2734 47.6445 58.4961 45.1055 63.5742 42.7617C68.6523 40.2227 75.1953 37.8789 83.2031 35.7305C91.4062 33.582 100.098 31.5312 109.277 29.5781C118.652 27.625 128.125 25.8672 137.695 24.3047C147.461 22.5469 156.543 21.082 164.941 19.9102C173.34 18.7383 180.664 17.7617 186.914 16.9805C193.359 16.1992 197.852 15.6133 200.391 15.2227C203.711 14.832 208.301 14.3438 214.16 13.7578C220.02 12.9766 225.977 12.1953 232.031 11.4141C238.086 10.6328 243.457 10.0469 248.145 9.65625C252.832 9.07031 255.664 8.77734 256.641 8.77734C260.352 8.58203 264.941 8.38672 270.41 8.19141C276.074 7.99609 281.543 7.89844 286.816 7.89844C292.09 7.89844 296.68 7.99609 300.586 8.19141C304.492 8.38672 306.445 8.58203 306.445 8.77734L309.668 18.4453C304.395 18.8359 297.266 19.2266 288.281 19.6172C279.297 19.8125 269.434 20.2031 258.691 20.7891C247.949 21.375 236.816 22.2539 225.293 23.4258C213.77 24.4023 203.027 25.8672 193.066 27.8203C183.105 29.5781 174.316 31.9219 166.699 34.8516C159.082 37.5859 153.711 41.0039 150.586 45.1055C149.023 49.5977 147.168 56.2383 145.02 65.0273C142.871 73.8164 140.234 83.875 137.109 95.2031C133.984 106.336 130.371 118.25 126.27 130.945C122.363 143.445 117.871 155.652 112.793 167.566C107.91 179.48 102.441 190.613 96.3867 200.965C90.332 211.121 83.5938 219.52 76.1719 226.16C68.9453 232.605 61.0352 236.707 52.4414 238.465C44.043 240.418 34.8633 238.855 24.9023 233.777ZM192.188 233.777C190.234 230.848 189.453 226.16 189.844 219.715C190.43 213.27 191.699 206.043 193.652 198.035C195.801 189.832 198.438 181.336 201.562 172.547C204.688 163.562 207.812 155.066 210.938 147.059C214.062 138.855 216.895 131.531 219.434 125.086C222.168 118.641 224.121 113.953 225.293 111.023C226.66 108.094 228.418 103.992 230.566 98.7188C232.91 93.25 235.352 87.3906 237.891 81.1406C240.625 74.6953 243.457 67.957 246.387 60.9258C249.316 53.8945 252.051 47.1562 254.59 40.7109C257.324 34.2656 259.766 28.4062 261.914 23.1328C264.258 17.8594 266.113 13.6602 267.48 10.5352C271.777 9.16797 274.609 9.36328 275.977 11.1211C277.344 12.6836 277.734 15.418 277.148 19.3242C276.562 23.2305 275.195 28.0156 273.047 33.6797C270.898 39.1484 268.359 45.1055 265.43 51.5508C262.695 57.8008 259.766 64.2461 256.641 70.8867C253.711 77.5273 250.977 83.875 248.438 89.9297C246.094 95.7891 244.238 101.16 242.871 106.043C241.699 110.926 241.406 114.832 241.992 117.762C245.508 118.152 249.512 118.152 254.004 117.762C258.691 117.371 263.379 116.785 268.066 116.004C272.949 115.223 277.734 114.344 282.422 113.367C287.109 112.391 291.211 111.609 294.727 111.023C312.5 108.094 326.66 103.895 337.207 98.4258C347.949 92.957 356.836 86.0234 363.867 77.625C371.094 69.0312 377.344 58.7773 382.617 46.8633C387.891 34.9492 393.945 21.082 400.781 5.26172C402.539 1.94141 404.102 0.574219 405.469 1.16016C406.836 1.55078 407.91 2.91797 408.691 5.26172C409.668 7.41016 410.352 9.85156 410.742 12.5859C411.133 15.3203 411.133 17.2734 410.742 18.4453C410.547 19.0312 409.961 20.3008 408.984 22.2539C408.008 24.207 406.934 26.3555 405.762 28.6992C404.59 30.8477 403.516 32.8984 402.539 34.8516C401.562 36.6094 400.977 37.7812 400.781 38.3672C400.391 39.1484 399.902 40.5156 399.316 42.4688C398.73 44.2266 398.047 46.1797 397.266 48.3281C396.484 50.4766 395.801 52.5273 395.215 54.4805C394.629 56.2383 394.238 57.5078 394.043 58.2891C395.02 58.4844 396.289 59.4609 397.852 61.2188C399.609 62.7813 400.586 64.0508 400.781 65.0273C401.367 68.3477 400.293 72.1563 397.559 76.4531C394.824 80.5547 391.406 84.8516 387.305 89.3438C383.398 93.8359 379.492 98.2305 375.586 102.527C371.875 106.824 369.336 110.828 367.969 114.539C359.961 134.07 353.027 153.602 347.168 173.133C341.504 192.664 337.305 212.879 334.57 233.777C333.984 234.754 333.105 235.73 331.934 236.707C330.762 237.684 329.492 237.781 328.125 237C327.734 232.703 328.027 226.844 329.004 219.422C330.176 211.805 331.641 203.602 333.398 194.812C335.156 185.828 337.109 176.746 339.258 167.566C341.406 158.387 343.359 149.988 345.117 142.371C347.07 134.559 348.633 128.113 349.805 123.035C350.977 117.957 351.465 115.125 351.27 114.539C347.168 113.758 341.895 113.66 335.449 114.246C329.004 114.637 321.973 115.516 314.355 116.883C306.738 118.055 298.828 119.52 290.625 121.277C282.422 123.035 274.414 124.988 266.602 127.137C258.984 129.09 251.855 131.043 245.215 132.996C238.574 134.754 233.105 136.316 228.809 137.684C225.488 145.105 222.754 153.309 220.605 162.293C218.457 171.082 216.211 179.969 213.867 188.953C211.719 197.938 209.277 206.629 206.543 215.027C203.809 223.23 200.195 230.555 195.703 237C195.312 236.805 194.629 236.316 193.652 235.535C192.871 234.754 192.383 234.168 192.188 233.777Z" fill="white"/>
</svg>
